
<svg width="64px" height="64px" viewBox="0 0 64 64" version="1.1" xmlns="http://www.w3.org/2000/svg" xmlns:xlink="http://www.w3.org/1999/xlink" xmlns:sketch="http://www.bohemiancoding.com/sketch/ns"><title>Slice 161</title><desc>Created with Sketch.</desc><defs></defs><g id="Page-1" stroke="none" stroke-width="1" fill="none" fill-rule="evenodd" sketch:type="MSPage"><g id="Group" sketch:type="MSLayerGroup" transform="translate(-1180.000000, -494.000000)" stroke="#58595B"><path d="M1208.398,535.906 C1208.398,526.995 1204.898,518.906 1204.898,518.906 C1204.898,520.636 1206.181,521.939 1207.858,521.939 C1209.538,521.939 1210.899,520.661 1210.899,518.931 C1210.899,520.661 1212.26,521.939 1213.939,521.939 C1215.617,521.939 1216.897,520.636 1216.897,518.906 C1216.897,518.906 1213.397,525.717 1213.397,535.906" id="Shape" sketch:type="MSShapeGroup" class="si-harmony-lightbulb-filament si-harmony-thin si-harmony-stroke si-harmony-thin-stroke"></path><path d="M1210.898,495 C1200.404,495 1191.898,503.675 1191.898,514.375 C1191.898,525.322 1200.898,533.468 1200.898,540 L1200.898,548 C1200.898,549.861 1202.176,551.412 1203.898,551.858 L1203.898,554.031 C1203.898,555.671 1207.033,557 1210.899,557 C1214.766,557 1217.899,555.671 1217.899,554.031 L1217.899,551.858 C1219.62,551.411 1220.897,549.861 1220.897,548 L1220.897,540 C1220.897,533.468 1229.897,525.419 1229.897,514.375 C1229.898,503.675 1221.391,495 1210.898,495 L1210.898,495 Z" id="Shape" stroke-width="2" sketch:type="MSShapeGroup" class="si-harmony-lightbulb-glass si-harmony-thick si-harmony-stroke si-harmony-thick-stroke si-harmony-main si-harmony-fill si-harmony-main-fill"></path><path d="M1203.898,551.5 L1217.898,551.5" id="Shape" sketch:type="MSShapeGroup" class="si-harmony-lightbulb-foot-contact1 si-harmony-thin si-harmony-stroke si-harmony-thin-stroke"></path><path d="M1200.898,538.5 L1220.898,538.5" id="Shape" sketch:type="MSShapeGroup" class="si-harmony-lightbulb-foot-contact2 si-harmony-thin si-harmony-stroke si-harmony-thin-stroke"></path><path d="M1200.898,542.5 L1220.898,542.5" id="Shape" sketch:type="MSShapeGroup" class="si-harmony-lightbulb-foot-contact3 si-harmony-thin si-harmony-stroke si-harmony-thin-stroke"></path><path d="M1200.898,546.5 L1220.898,546.5" id="Shape" sketch:type="MSShapeGroup" class="si-harmony-lightbulb-foot-contact4 si-harmony-thin si-harmony-stroke si-harmony-thin-stroke"></path></g></g></svg>